<?xml version="1.0" encoding="UTF-8"?>
<svg id="Layer_2" data-name="Layer 2" xmlns="http://www.w3.org/2000/svg" viewBox="0 0 204.6 125.59">
  <g id="Layer_1-2" data-name="Layer 1">
    <path d="m97.95,125.37c.54-.96,1.08-1.92,1.65-2.95-3.1-2.46-6.23-4.86-9.29-7.36-14.5-11.85-29.9-22.48-45.3-33.11-4.97-3.43-9.92-6.88-14.87-10.33-1.72-1.2-1.73-1.63-.16-2.97,1.14-.98,2.28-1.96,3.71-3.19-.71,0-1.05,0-1.38,0-10.23-.1-20.47-.2-30.7-.29-.79,0-1.09-.22-1.11-1.1-.13-4.67-.42-9.34-.5-14.01-.04-2.74.07-5.51.4-8.23.24-1.99,1.34-3.74,3.05-4.85,2.31-1.5,4.48-3.18,6.6-4.93,4.91-4.06,8.55-9.14,11.67-14.64,1.6-2.81,3.36-5.53,5.14-8.23,2.94-4.48,7.23-6.68,12.46-7.39C50.29.29,61.32.26,72.36.23c15.96-.04,31.91-.16,47.87-.19,8.56-.02,17.12-.14,25.67.17,7.91.29,15.73,1.48,23.36,3.76,4.53,1.35,8.31,3.74,11.03,7.6,2.9,4.11,5.7,8.3,8.44,12.51,2.57,3.95,5.33,7.74,9.22,10.47,3.96,2.78,5.37,6.72,5.45,11.27.07,3.99-.12,7.99-.09,11.99.03,3.43.14,6.87.36,10.29.08,1.18.6,2.33.94,3.6-9.83-.26-19.23-3.5-29.23-2.87.26.38.42.67.64.9.92,1.01,1.86,1.99,2.77,2.99,1.2,1.31,1.17,1.67-.35,2.52-6.16,3.47-12.39,6.82-18.5,10.37-10.5,6.11-20.91,12.36-31.38,18.51-7.86,4.61-15.72,9.25-22.89,14.9-2.35,1.85-4.51,3.94-6.76,5.93-.23.21-.47.41-.71.62-.08-.07-.16-.14-.24-.22Zm3.32-4.71c.86-1.15,1.55-2.1,2.26-3.03,6.14-8,12.5-15.83,19.5-23.08,11.36-11.76,22.92-23.34,34.41-34.98.98-.99,1.75-2.07,2.51-3.25,3.56-5.6,5.62-11.78,7.55-18.06,2.08-6.79,4.39-13.51,6.58-20.26.42-1.29.8-2.59,1.09-3.92.54-2.48-.22-4.54-2.32-5.96-1.08-.73-2.3-1.31-3.53-1.74-7.26-2.52-14.76-3.93-22.43-4.01-8.23-.1-16.47.24-24.71.27-14,.04-27.99.08-41.99-.05-12.11-.12-24.23-.82-36.32.46-3.11.33-6.22,1.04-9.22,1.92-2.83.83-4.46,2.99-4.89,5.96-.1.67-.16,1.36-.13,2.03.3,6.12,1.98,11.88,4.71,17.32,3.6,7.17,7.39,14.25,10.91,21.46,1.42,2.9,3.34,5.24,5.66,7.44,3.82,3.63,7.76,7.22,11.04,11.31,10.65,13.29,21.02,26.79,31.51,40.21,2.53,3.24,5.07,6.47,7.8,9.96Zm99.34-54.04s.07.01.11.02v-8.36s-.07,0-.11,0v8.34ZM2.45,41.57s-.05,0-.08,0v6.73s.05,0,.08,0v-6.73Zm198.86,7.05s.07,0,.1,0v-5.84s-.07,0-.1,0v5.85Z"/>
  </g>
</svg>