<?xml version="1.0" encoding="UTF-8"?>
<svg id="Layer_2" data-name="Layer 2" xmlns="http://www.w3.org/2000/svg" viewBox="0 0 145.71 28.14">
  <g id="Layer_1-2" data-name="Layer 1">
    <path d="m140.13,28.14c-.34-.17-.63-.42-.95-.46-8.01-.95-15.99-2.06-24.11-1.91-19.67.36-39.34.86-59.01.25-6.95-.22-13.92-.12-20.87-.4-8.11-.32-16.2-.89-24.3-1.33-2.35-.13-4.71-.13-7.06-.25-.37-.02-.96-.29-1.06-.57C1.31,19.16-.04,14.81,0,10.19.04,6.2,1.73,3.62,5.56,2.45c2.77-.85,5.66-1.41,8.54-1.71C26.51-.52,38.95.18,51.38.32c13.79.16,27.59.07,41.38.01,8.16-.03,16.31-.36,24.47-.27,7.63.09,15.09,1.46,22.31,3.98,1.38.48,2.73,1.16,3.93,1.98,1.8,1.24,2.48,3.12,2.16,5.25-.2,1.29-.6,2.56-1.03,3.8-1.01,2.97-2.11,5.92-3.14,8.89-.5,1.44-.93,2.89-1.33,4.16Z"/>
  </g>
</svg>