<?xml version="1.0" encoding="UTF-8"?>
<svg id="Layer_2" data-name="Layer 2" xmlns="http://www.w3.org/2000/svg" viewBox="0 0 136.58 94.15">
  <g id="Layer_1-2" data-name="Layer 1">
    <path d="m68.27,94.15c-2.57-3.28-5.07-6.44-7.55-9.62-10.51-13.45-20.89-27-31.57-40.31-3.36-4.19-7.48-7.75-11.27-11.59-.56-.57-1.14-1.14-1.78-1.61-1.35-.98-1.62-2.55-2.32-3.9C9.74,19.39,5.66,11.69,1.64,3.96,1.04,2.8.63,1.55,0,.03,1.59.03,2.96-.04,4.33.04c9.34.52,18.67,1.28,28.01,1.55,14.31.41,28.63.63,42.94.65,13.03.02,26.07-.49,39.1-.47,5.38,0,10.75.75,16.12,1.21,1.98.17,3.94.49,6.07.77-.64,2.17-1.2,4.18-1.82,6.17-1.59,5.09-3,10.26-5.4,15.06-1.07,2.15-2.12,4.32-3.21,6.46-.21.41-.56.76-.89,1.09-11.73,11.91-23.54,23.74-35.16,35.75-7.21,7.45-13.68,15.55-20.03,23.73-.51.66-1.07,1.29-1.8,2.15Z"/>
  </g>
</svg>