<?xml version="1.0" encoding="UTF-8"?>
<svg id="Layer_2" data-name="Layer 2" xmlns="http://www.w3.org/2000/svg" viewBox="0 0 129.94 219.71">
  <g id="Layer_1-2" data-name="Layer 1">
    <path d="m4.83,175.87c.09-.63.1-1.11.23-1.56,3.69-12.8,7.34-25.6,11.89-38.15,5.59-15.42,9.99-31.24,14.22-47.1,3.19-11.95,7.8-23.4,12.78-34.69,5.47-12.42,10.39-25.09,16.72-37.14,2.32-4.42,4.64-8.84,6.99-13.25.45-.84.96-1.68,1.58-2.39,1.38-1.6,3.26-2.09,5.07-1.02,1.84,1.09,3.61,2.38,5.16,3.85,5,4.74,8.81,10.42,12.47,16.22,3.88,6.14,7.1,12.59,9.43,19.47,2.59,7.67,4.45,15.54,6.37,23.39,1.46,5.97,2.99,11.93,4.14,17.96,1.34,7.03,1.41,14.14.32,21.24-.34,2.21-.62,4.43-1.07,6.62-.61,2.95.24,5.43,2.05,7.7,1.58,1.99,2.17,4.32,2.27,6.81.07,1.72-.03,3.46.23,5.15.28,1.79.65,3.65,1.44,5.26,1.84,3.76,4.02,7.36,5.93,11.09,1.18,2.3,2.11,4.73,3.15,7.11.56,1.28,1.04,2.6,1.66,3.85.43.86.51,1.68.09,2.51-1.37,2.78-1.04,5.4.68,7.91,1.9,2.78,1.37,5.81.85,8.81-.31,1.8-.78,3.59-1.33,5.34-1.42,4.57-1.23,9.12-.19,13.72,1.27,5.62,1.15,11.26.29,16.92-.14.95-.32,1.9-.31,2.86,0,1.03-.46,1.59-1.3,2.07-3.12,1.78-6.54,2.51-10.05,2.91-8.72.99-17.32-.1-25.88-1.57-19.91-3.42-38.81-10.12-57.44-17.73-10.31-4.21-20.65-8.37-30.95-12.61-2.94-1.21-2.67-.95-1.36-3.72,1.11-2.35,2.2-4.7,3.33-7.04.17-.35.45-.64.56-.79Z"/>
  </g>
</svg>