<?xml version="1.0" encoding="UTF-8"?>
<svg id="Layer_2" data-name="Layer 2" xmlns="http://www.w3.org/2000/svg" viewBox="0 0 135.53 208.48">
  <g id="Layer_1-2" data-name="Layer 1">
    <path d="m0,19.06c3.36-4.32,7.69-7.84,13.09-9.89,7.64-2.9,15.33-5.67,22.93-8.48v8.19h10.07c.03.09.06.18.1.27-.49.37-.98.74-1.6,1.21,2.33,1.64,4.44,3.07,6.49,4.57,5.05,3.71,10.08,7.45,15.09,11.2.35.26.52.78.72,1.1,7.57-6,16.48-10.45,25.17-15.5-.54-.61-.95-1.08-1.36-1.55l.07-.35c2.96.36,5.92.72,8.98,1.1-1.15-3.61.48-7.33-1.12-10.93,1.63.6,3.19,1.14,4.73,1.74,6.94,2.71,13.89,5.42,20.82,8.16,4.33,1.72,7.86,4.63,11.37,7.66-4.21,1.67-6.45,4.97-7.43,9.06-.64,2.65-.81,5.44-.93,8.18-.21,5.11-.17,10.22-.34,15.33-.12,3.7-1.08,7.2-2.64,10.59-1.62,3.53-2.99,7.19-4.3,10.86-.4,1.12-.26,2.44-.28,3.68-.16,7.53.8,14.98,1.86,22.41.08.59.18,1.19.22,1.78.29,5.01.72,10.01.77,15.02.02,2.31-.77,4.63-1.13,6.95-.73,4.71-.31,9.36.45,14.04.82,5.04,1.27,10.13,1.94,15.19.38,2.84.96,5.65,1.31,8.5.44,3.6.92,7.2,1.06,10.82.17,4.42.12,8.86-.03,13.28-.21,6.03-.63,12.05-.88,18.07-.05,1.1-.44,1.27-1.43,1.3-5.39.19-10.77.46-16.15.72-1.09.05-1.85.54-2.49,1.55-.46.72-1.46,1.36-2.31,1.51-3.41.61-6.83,1.24-10.28,1.45-6.14.38-12.29.55-18.44.62-2.53.03-5.06-.45-7.59-.62-4.98-.33-9.96-.67-14.95-.89-10.26-.45-20.52-.79-30.77-1.27-2.18-.1-4.36-.49-6.5-.95-1.94-.41-2.2-.97-2.19-2.88,0-3.63-.17-7.26-.04-10.89.14-3.66.44-7.32.87-10.96.81-6.75,1.37-13.5.88-20.3-.61-8.47.35-16.82,1.96-25.12.3-1.56.85-3.1.97-4.68.1-1.45-.1-2.95-.39-4.38-1.39-6.81-1-13.49,1.29-20.05.52-1.5.6-3.01.4-4.59-.14-1.17.05-2.37,0-3.56-.08-2.23-.3-4.46-.34-6.69-.03-1.87.15-3.74.16-5.62,0-1.74-.12-3.49-.12-5.23,0-1.42-.05-2.86.19-4.24.28-1.62.78-3.18-.22-4.73-.16-.25-.28-.66-.19-.91.76-2.11-.58-3.7-1.4-5.33-1.12-2.21-2.46-4.27-2.33-6.91.03-.61-.48-1.23-.66-1.87-.24-.81-.69-1.71-.54-2.46.94-4.64.33-9.12-.98-13.59-.85-2.9-1.47-5.87-2.47-8.71-1.39-3.95-3.62-7.46-6.61-10.42-.66-.65-1.59-1.02-2.49-1.57Zm72.69,126.22c-.02.98.89,1.93,1.87,1.97.98.03,1.93-.88,1.94-1.88.02-1.01-.86-1.92-1.87-1.95-1.03-.02-1.93.84-1.95,1.86Zm4.93,28.24c0-1.04-.86-1.9-1.9-1.91-1.05-.01-1.88.82-1.88,1.89,0,1.07.81,1.88,1.88,1.89,1.08,0,1.9-.8,1.9-1.87Zm-4.58-54.06c1.04-.02,1.84-.88,1.83-1.95-.01-1.06-.86-1.9-1.89-1.89-1.02.02-1.85.89-1.83,1.94.01,1.04.89,1.91,1.89,1.89Zm-.79-61.84c0-1.04-.77-1.83-1.78-1.83-1.02,0-1.88.85-1.91,1.88-.03,1.07.8,1.9,1.85,1.88,1.04-.02,1.84-.86,1.83-1.93Zm1.13,30.69c.03-.99-.76-1.88-1.72-1.94-1.01-.06-1.87.79-1.9,1.86-.02,1.05.69,1.88,1.68,1.95.96.07,1.9-.84,1.94-1.87Zm-2.85-59.21c-.02-.96-.97-1.86-1.98-1.86-.96,0-1.74.81-1.68,1.77.05.99.98,1.8,2.03,1.77.93-.03,1.66-.77,1.63-1.69Z"/>
  </g>
</svg>