<?xml version="1.0" encoding="UTF-8"?>
<svg id="Layer_2" data-name="Layer 2" xmlns="http://www.w3.org/2000/svg" viewBox="0 0 180.59 219.94">
  <g id="Layer_1-2" data-name="Layer 1">
    <path d="m39.97,98.23c-4.09,1.85-7.93,1.22-11.75.6-7.7-1.26-14.84-4.26-22.01-7.17-2.1-.85-4.2-1.72-6.21-2.54.82-2.37,1.62-4.6,2.35-6.85,1.75-5.42,3.71-10.78,5.14-16.28,2.65-10.15,6.6-19.77,11.03-29.24,2.69-5.74,6.48-10.48,11.95-13.65,2.91-1.69,6.11-2.91,9.27-4.12,5.96-2.28,12.03-4.26,17.94-6.65,2.5-1.01,4.55-2.93,6.04-5.27.71-1.11,1.4-2.23,2.04-3.38,1.19-2.13,3.05-3.06,5.4-3.19,2.07-.11,4.15-.28,6.22-.31,7.83-.08,15.66-.23,23.49-.12,3.09.04,6.17.64,9.24,1.1,2.01.3,3.48,1.52,4.59,3.19.8,1.19,1.56,2.41,2.35,3.61,1.33,2.02,3.08,3.42,5.4,4.29,7.98,3.01,15.92,6.13,23.85,9.27,4.34,1.72,7.87,4.66,11.32,7.71,3.01,2.67,5.54,5.74,7.59,9.18,2.69,4.5,3.97,9.53,5.39,14.51,2.18,7.66,4.43,15.3,6.75,22.92.91,3,2.11,5.91,3.22,8.98-.02.01-.19.18-.39.27-6.88,2.96-13.71,6.06-20.68,8.83-5.53,2.2-11.42,2.85-17.51,2.97.19,1.93.35,3.86.57,5.78.37,3.13.82,6.25,1.16,9.38.33,3.04.75,6.09.78,9.15.03,2.85-.15,5.76-.68,8.55-1.05,5.6-1.11,11.14-.15,16.77.83,4.83,1.23,9.74,1.9,14.6.31,2.25.91,4.46,1.16,6.71.28,2.58.28,5.18.48,7.77.1,1.31.47,2.6.56,3.9.15,2.13.17,4.27.24,6.41,0,.32-.04.64-.05.96-.26,8.5-.5,17-.77,25.51-.05,1.68-.1,1.61-1.81,1.68-5.27.21-10.53.47-15.8.73-1.1.05-1.9.51-2.49,1.56-.33.59-1.09,1.14-1.75,1.31-2.35.58-4.73,1.23-7.13,1.41-4.7.34-9.42.36-14.13.54-2.63.1-5.26.28-7.89.38-.82.03-1.65-.1-2.47-.16-5.22-.39-10.43-.84-15.65-1.15-6.86-.41-13.72-.75-20.58-1.05-4.63-.2-9.27-.19-13.89-.44-2.42-.13-4.85-.48-7.22-.96-2.11-.42-2.32-1.04-2.26-3.19.08-2.83.18-5.67-.05-8.49-.4-5,.52-9.87,1.08-14.78.64-5.6,1.24-11.22.77-16.84-.85-10.26.38-20.33,2.63-30.3.47-2.06-.02-3.95-.23-5.91-.25-2.42-.61-4.83-.8-7.26-.27-3.36.53-6.58,1.41-9.78.71-2.56,1.33-5.06,1.11-7.85-.35-4.43-.09-8.9-.09-13.55Z"/>
  </g>
</svg>