<?xml version="1.0" encoding="UTF-8"?>
<svg id="Layer_2" data-name="Layer 2" xmlns="http://www.w3.org/2000/svg" viewBox="0 0 125.57 216.38">
  <g id="Layer_1-2" data-name="Layer 1">
    <path d="m.62,202.84c-.13-.31-.44-.72-.45-1.14-.05-2.72-.03-5.44-.05-8.16-.02-2.64-.17-5.28-.1-7.91.07-2.83.33-5.66.5-8.49.03-.44.13-.89.05-1.32-.39-2.21.35-4.15,1.33-6.06,2.6-5.09,3.7-10.7,5.59-16.03,1.67-4.69,3.61-9.33,5.95-13.71,5.52-10.36,8.55-21.36,9.6-33,.71-7.89.97-15.8,1.01-23.72.07-12.04.09-24.08.43-36.11.31-10.83,2.15-21.36,7.59-31,3.59-6.36,8.52-11.34,14.75-15.08,1.36-.81,2.78-1.45,4.43-.96.41.12.86.28,1.18.55,1.65,1.43,3.43,2.75,4.87,4.37,6.44,7.27,12.76,14.63,17.9,22.95,5.28,8.54,8.66,17.85,11.91,27.27,3.48,10.1,5.84,20.48,8.52,30.8,4.2,16.15,9.15,32.08,14.34,47.94,2.94,8.99,5.49,18.11,8.59,27.04,1.8,5.18,4.32,10.11,6.56,15.13.67,1.5.75,1.54-.75,2.23-10.17,4.65-20.32,9.33-30.54,13.88-12.03,5.37-24.1,10.66-36.59,14.92-8.74,2.98-17.62,5.51-26.8,6.65-8,1-15.95,2.56-24.06,2.49-1.4-.01-2.8-.09-4.18-.27-.36-.05-.91-.56-.94-.91-.4-3.77-.72-7.56-1.02-11.34-.03-.34.27-.71.4-1.02Z"/>
  </g>
</svg>